# xmcd CD database file
#
# Track frame offsets:
#	150
#	19337
#	36560
#	53520
#	66905
#	86075
#	101715
#	113142
#	132510
#	149345
#	170447
#	190637
#	205042
#	222597
#
# Disc length: 3149 seconds
#
# Revision: 0
# Processed by: cddbd v1.4PL0 Copyright (c) Steve Scherf et al.
# Submitted via: Feurio! 1.65 - http://www.feurio.com
#
DISCID=d30c4b0e
DTITLE=Snatch It Back - Hot Stuff
DYEAR=1994
DGENRE=blues
TTITLE0=Sam's Boogie
TTITLE1=Hot Stuff
TTITLE2=Somebody Help Me
TTITLE3=Sticks And Stones
TTITLE4=Trouble Blues
TTITLE5=Take A Good Look At Yourself
TTITLE6=Ain't Drunk, Just Drinking
TTITLE7=Can't You See What You're Doing To Me
TTITLE8=Sweet Nothings
TTITLE9=Get Out My Life Woman
TTITLE10=Howling Tom Cat
TTITLE11=Make A Little Love
TTITLE12=Boogie Man
TTITLE13=Went To A Party
EXTD=
EXTT0=
EXTT1=
EXTT2=
EXTT3=
EXTT4=
EXTT5=
EXTT6=
EXTT7=
EXTT8=
EXTT9=
EXTT10=
EXTT11=
EXTT12=
EXTT13=
PLAYORDER=
